<svg width="16" height="16" viewBox="0 0 20 20" fill="none" xmlns="http://www.w3.org/2000/svg">
<circle cx="10" cy="10" r="10" fill="white"/>
<path d="M10.7832 9.67432H9.36019C9.16355 9.67432 9.00443 9.83228 9.00443 10.0275V13.206H8.29291C8.1581 13.206 8.03513 13.2816 7.97467 13.4013C7.91457 13.5209 7.92743 13.6641 8.00838 13.771L9.78717 15.9136C9.85422 16.0025 9.95983 16.055 10.0717 16.055C10.1836 16.055 10.2892 16.0025 10.3562 15.9136L12.135 13.771C12.216 13.6641 12.2288 13.5209 12.1687 13.4013C12.1083 13.2816 11.9853 13.206 11.8505 13.206H11.139V10.0275C11.139 9.83228 10.9799 9.67432 10.7832 9.67432V9.67432Z" fill="#0073AA"/>
<path d="M13.9492 7.55563C13.8029 6.84445 13.221 6.28778 12.4681 6.16949C12.1575 4.92821 11.0211 4 9.71587 4C8.41338 4 7.28947 4.91441 6.9709 6.14534C6.93753 6.14362 6.90385 6.14258 6.86979 6.14258C5.30049 6.14258 4 7.41007 4 8.96796C4 10.5259 5.30049 11.7933 6.86979 11.7933H8.29283V10.0275C8.29283 9.44324 8.77159 8.96796 9.36011 8.96796H10.7831C11.3717 8.96796 11.8504 9.44324 11.8504 10.0275V11.7933H13.985C15.162 11.7933 16.1432 10.8428 16.1432 9.67431C16.1432 8.49408 15.1457 7.52631 13.9492 7.55563V7.55563Z" fill="#0073AA"/>
</svg>
